<svg width="15" height="20" viewBox="0 0 15 20" fill="none" xmlns="http://www.w3.org/2000/svg">
<path d="M2.5 0C1.12109 0 0 1.12109 0 2.5V17.5C0 18.8789 1.12109 20 2.5 20H12.5C13.8789 20 15 18.8789 15 17.5V2.5C15 1.12109 13.8789 0 12.5 0H2.5ZM6.25 12.5H8.75C10.4766 12.5 11.875 13.8984 11.875 15.625C11.875 15.9688 11.5938 16.25 11.25 16.25H3.75C3.40625 16.25 3.125 15.9688 3.125 15.625C3.125 13.8984 4.52344 12.5 6.25 12.5ZM10 8.75C10 10.1289 8.87891 11.25 7.5 11.25C6.12109 11.25 5 10.1289 5 8.75C5 7.37109 6.12109 6.25 7.5 6.25C8.87891 6.25 10 7.37109 10 8.75ZM5.625 2.5H9.375C9.71875 2.5 10 2.78125 10 3.125C10 3.46875 9.71875 3.75 9.375 3.75H5.625C5.28125 3.75 5 3.46875 5 3.125C5 2.78125 5.28125 2.5 5.625 2.5Z" fill="#416EE6"/>
</svg>
