<svg width="24" height="23" viewBox="0 0 24 23" fill="none" xmlns="http://www.w3.org/2000/svg">
<path d="M23.857 5.485L20.857 0.485C20.7681 0.337089 20.6425 0.214689 20.4923 0.129702C20.3422 0.0447151 20.1726 3.28176e-05 20 0H4.00001C3.82745 3.28176e-05 3.65784 0.0447151 3.50767 0.129702C3.3575 0.214689 3.23187 0.337089 3.14301 0.485L0.143006 5.485C0.0494961 5.64051 6.35974e-05 5.81854 6.16649e-06 6C-0.00185276 7.05849 0.416644 8.07441 1.16352 8.82447C1.91039 9.57453 2.92452 9.99735 3.98301 10H3.99101C4.97875 10.0025 5.93203 9.63711 6.66501 8.975C7.39585 9.63554 8.34589 10.0013 9.33101 10.0013C10.3161 10.0013 11.2662 9.63554 11.997 8.975C12.7282 9.63694 13.6792 10.0035 14.6655 10.0035C15.6518 10.0035 16.6029 9.63694 17.334 8.975C17.908 9.49279 18.6199 9.83281 19.3834 9.95376C20.1469 10.0747 20.9291 9.9714 21.635 9.65636C22.3409 9.34132 22.9401 8.82811 23.3599 8.17905C23.7798 7.52999 24.0021 6.773 24 6C23.9999 5.81854 23.9505 5.64051 23.857 5.485Z" fill="#416EE6"/>
<path d="M20.016 12C19.0864 12.0007 18.1694 11.7857 17.337 11.372L17.322 11.379C16.6194 11.7293 15.8543 11.9371 15.071 11.9903C14.2877 12.0435 13.5016 11.9411 12.758 11.689C12.4979 11.6015 12.244 11.4966 11.998 11.375L11.987 11.38C11.2846 11.7306 10.5197 11.9384 9.73644 11.9914C8.95322 12.0445 8.16725 11.9417 7.424 11.689C7.16422 11.6015 6.91064 11.4966 6.665 11.375C5.83409 11.7876 4.91871 12.0015 3.991 12C3.65878 11.9968 3.32736 11.9667 3 11.91V22C3 22.2652 3.10536 22.5196 3.29289 22.7071C3.48043 22.8946 3.73478 23 4 23H10V17H14V23H20C20.2652 23 20.5196 22.8946 20.7071 22.7071C20.8946 22.5196 21 22.2652 21 22V11.906C20.6751 11.9642 20.346 11.9956 20.016 12Z" fill="#416EE6"/>
</svg>
