<svg width="23" height="23" viewBox="0 0 23 23" fill="none" xmlns="http://www.w3.org/2000/svg">
<g clip-path="url(#clip0_36_4561)">
<path d="M10.1 8.25C9.71281 8.25 9.4 8.58516 9.4 9C9.4 9.41484 9.08719 9.75 8.7 9.75C8.31281 9.75 8 9.41484 8 9C8 7.75781 8.94063 6.75 10.1 6.75H12.2219C13.7553 6.75 15 8.08359 15 9.72656C15 10.9547 14.2956 12.0562 13.2281 12.5016L11.85 13.0758V13.5C11.85 13.9148 11.5372 14.25 11.15 14.25C10.7628 14.25 10.45 13.9148 10.45 13.5V13.0758C10.45 12.457 10.8044 11.9016 11.3425 11.6789L12.7206 11.1047C13.25 10.882 13.6 10.3359 13.6 9.72656C13.6 8.91094 12.9831 8.25 12.2219 8.25H10.1ZM11.15 17.25C10.6666 17.25 10.275 16.8305 10.275 16.3125C10.275 15.7945 10.6666 15.375 11.15 15.375C11.6334 15.375 12.025 15.7945 12.025 16.3125C12.025 16.8305 11.6334 17.25 11.15 17.25Z" fill="#EE0000"/>
</g>
<circle cx="11.5" cy="11.5" r="11" stroke="#EE0000"/>
<defs>
<clipPath id="clip0_36_4561">
<rect width="7" height="12" fill="white" transform="translate(8 6)"/>
</clipPath>
</defs>
</svg>
